<?xml version="1.0" standalone="no"?>
<!DOCTYPE svg PUBLIC "-//W3C//DTD SVG 20010904//EN"
 "http://www.w3.org/TR/2001/REC-SVG-20010904/DTD/svg10.dtd">
<svg version="1.0" xmlns="http://www.w3.org/2000/svg"
 width="439.000000pt" height="375.000000pt" viewBox="0 0 439.000000 375.000000"
 preserveAspectRatio="xMidYMid meet">
<metadata>
Created by potrace 1.16, written by Peter Selinger 2001-2019
</metadata>
<g transform="translate(0.000000,375.000000) scale(0.100000,-0.100000)"
fill="#FF2626" stroke="none">
<path d="M1728 3549 c-655 -90 -1210 -547 -1413 -1164 -61 -187 -80 -311 -79
-530 0 -166 4 -206 27 -317 147 -699 687 -1221 1397 -1350 151 -27 428 -30
575 -4 252 42 495 138 693 270 72 48 73 49 91 30 10 -10 58 -66 107 -123 101
-118 152 -151 240 -151 96 0 132 28 322 248 93 108 242 280 331 382 88 102
170 203 181 226 42 85 19 204 -51 271 -49 46 -97 63 -179 63 l-70 0 0 203 c0
202 0 204 -27 258 -33 63 -94 114 -150 124 l-39 6 -12 97 c-79 631 -539 1180
-1162 1386 -188 62 -291 78 -515 82 -110 1 -230 -1 -267 -7z m352 -778 l0 -88
60 -6 c194 -17 359 -163 399 -355 18 -88 25 -82 -108 -82 l-118 0 -7 38 c-8
55 -56 115 -113 143 -45 23 -58 24 -238 24 -179 0 -193 -1 -237 -23 -142 -70
-180 -235 -82 -350 68 -80 89 -86 344 -92 202 -6 231 -9 280 -29 251 -103 372
-347 290 -587 -56 -163 -195 -276 -384 -312 l-86 -16 0 -83 0 -83 -120 0 -120
0 0 84 0 85 -47 6 c-124 17 -201 53 -283 131 -69 66 -106 131 -125 221 -8 37
-15 71 -15 76 0 4 54 7 120 7 114 0 120 -1 120 -20 0 -28 33 -90 62 -117 12
-12 43 -31 68 -42 40 -18 65 -21 225 -21 169 0 183 2 230 24 128 60 177 183
121 303 -26 55 -82 104 -139 122 -18 5 -122 12 -232 14 -233 6 -288 18 -394
91 -239 163 -274 488 -76 695 84 88 218 151 322 151 l43 0 0 83 c0 46 3 87 7
90 3 4 57 7 120 7 l113 0 0 -89z m1580 -1306 l0 -295 161 0 c93 0 159 -4 157
-9 -4 -11 -608 -711 -613 -711 -3 0 -82 90 -459 525 -86 99 -156 183 -156 188
0 4 70 7 155 7 l155 0 0 288 c0 159 3 292 7 295 3 4 138 7 300 7 l293 0 0
-295z"/>
</g>
</svg>
